<svg width="48" height="48" viewBox="0 0 48 48" fill="none" xmlns="http://www.w3.org/2000/svg">
<circle cx="24" cy="24" r="23" fill="black" stroke="white" stroke-width="2"/>
<path d="M24 28.75C25.0417 28.75 25.9271 28.3854 26.6562 27.6562C27.3854 26.9271 27.75 26.0417 27.75 25C27.75 23.9583 27.3854 23.0729 26.6562 22.3438C25.9271 21.6146 25.0417 21.25 24 21.25C22.9583 21.25 22.0729 21.6146 21.3438 22.3438C20.6146 23.0729 20.25 23.9583 20.25 25C20.25 26.0417 20.6146 26.9271 21.3438 27.6562C22.0729 28.3854 22.9583 28.75 24 28.75ZM24 31.25C22.2708 31.25 20.7969 30.6406 19.5781 29.4219C18.3594 28.2031 17.75 26.7292 17.75 25C17.75 23.2708 18.3594 21.7969 19.5781 20.5781C20.7969 19.3594 22.2708 18.75 24 18.75C25.7292 18.75 27.2031 19.3594 28.4219 20.5781C29.6406 21.7969 30.25 23.2708 30.25 25C30.25 26.7292 29.6406 28.2031 28.4219 29.4219C27.2031 30.6406 25.7292 31.25 24 31.25ZM15.25 26.25H10.25V23.75H15.25V26.25ZM37.75 26.25H32.75V23.75H37.75V26.25ZM22.75 16.25V11.25H25.25V16.25H22.75ZM22.75 38.75V33.75H25.25V38.75H22.75ZM17 19.6875L13.8438 16.6563L15.625 14.8125L18.625 17.9375L17 19.6875ZM32.375 35.1875L29.3438 32.0312L31 30.3125L34.1562 33.3438L32.375 35.1875ZM29.3125 18L32.3438 14.8438L34.1875 16.625L31.0625 19.625L29.3125 18ZM13.8125 33.375L16.9688 30.3438L18.6875 32L15.6563 35.1562L13.8125 33.375Z" fill="#FEF7FF"/>
</svg>
