<svg width="48" height="48" viewBox="0 0 48 48" fill="none" xmlns="http://www.w3.org/2000/svg">
<circle cx="24" cy="24" r="23" fill="white" stroke="black" stroke-width="2"/>
<path d="M24 36.25C20.875 36.25 18.2188 35.1562 16.0312 32.9688C13.8438 30.7812 12.75 28.125 12.75 25C12.75 21.875 13.8438 19.2188 16.0312 17.0312C18.2188 14.8438 20.875 13.75 24 13.75C24.2917 13.75 24.5781 13.7604 24.8594 13.7813C25.1406 13.8021 25.4167 13.8333 25.6875 13.875C24.8333 14.4792 24.151 15.2656 23.6406 16.2344C23.1302 17.2031 22.875 18.25 22.875 19.375C22.875 21.25 23.5313 22.8437 24.8438 24.1562C26.1563 25.4687 27.75 26.125 29.625 26.125C30.7708 26.125 31.8229 25.8698 32.7812 25.3594C33.7396 24.849 34.5208 24.1667 35.125 23.3125C35.1667 23.5833 35.1979 23.8594 35.2188 24.1406C35.2396 24.4219 35.25 24.7083 35.25 25C35.25 28.125 34.1562 30.7812 31.9688 32.9688C29.7812 35.1562 27.125 36.25 24 36.25ZM24 33.75C25.8333 33.75 27.4792 33.2448 28.9375 32.2344C30.3958 31.224 31.4583 29.9063 32.125 28.2812C31.7083 28.3854 31.2917 28.4687 30.875 28.5312C30.4583 28.5937 30.0417 28.625 29.625 28.625C27.0625 28.625 24.8802 27.724 23.0781 25.9219C21.276 24.1198 20.375 21.9375 20.375 19.375C20.375 18.9583 20.4063 18.5417 20.4688 18.125C20.5313 17.7083 20.6146 17.2917 20.7188 16.875C19.0937 17.5417 17.776 18.6042 16.7656 20.0625C15.7552 21.5208 15.25 23.1667 15.25 25C15.25 27.4167 16.1042 29.4792 17.8125 31.1875C19.5208 32.8958 21.5833 33.75 24 33.75Z" fill="#1D1B20"/>
</svg>
